<svg width="1673" height="574" viewBox="0 0 1673 574" fill="none" xmlns="http://www.w3.org/2000/svg">
<path d="M110 195C110 148.056 148.056 110 195 110V110C241.944 110 280 148.056 280 195V280H195C148.056 280 110 241.944 110 195V195Z" fill="#016143"/>
<path d="M110 379C110 425.944 148.056 464 195 464V464C241.944 464 280 425.944 280 379V294H195C148.056 294 110 332.056 110 379V379Z" fill="#016143"/>
<path d="M379 464C425.944 464 464 425.944 464 379V379C464 332.056 425.944 294 379 294L294 294L294 379C294 425.944 332.056 464 379 464V464Z" fill="#016143"/>
<path d="M464 110L384 110C334.294 110 294 150.294 294 200L294 280L374 280C423.706 280 464 239.706 464 190L464 110Z" fill="#016143"/>
<circle cx="379.5" cy="195.5" r="64.5" fill="white"/>
<path d="M1546.71 339.568H1562.65V389.488H1542.49V358H1458.58V389.488H1438.61V339.568H1451.48C1454.29 333.936 1456.73 328.112 1458.77 322.096C1460.82 315.952 1462.49 309.36 1463.77 302.32C1465.05 295.152 1465.94 287.408 1466.45 279.088C1467.09 270.768 1467.41 261.552 1467.41 251.44V221.296H1546.71V339.568ZM1487.38 239.728V269.104C1487.38 283.312 1486.17 296.176 1483.73 307.696C1481.43 319.088 1477.85 329.712 1472.98 339.568H1525.97V239.728H1487.38Z" fill="#016143"/>
<path d="M1428.51 239.92H1361.89V279.856H1418.72V298.48H1361.89V339.376H1428.51V358H1341.15V221.296H1428.51V239.92Z" fill="#016143"/>
<path d="M1318.79 358H1298.06V266.608L1266.57 333.232H1251.21L1218.95 266.608V358H1198.22V221.296H1218.95L1258.89 306.352L1298.06 221.296H1318.79V358Z" fill="#016143"/>
<path d="M1142.75 221.296C1149.4 221.296 1155.42 222.384 1160.79 224.56C1166.17 226.608 1170.78 229.488 1174.62 233.2C1178.46 236.784 1181.4 241.136 1183.45 246.256C1185.5 251.376 1186.52 256.88 1186.52 262.768C1186.52 268.784 1185.5 274.288 1183.45 279.28C1181.4 284.272 1178.46 288.624 1174.62 292.336C1170.78 296.048 1166.17 298.928 1160.79 300.976C1155.42 303.024 1149.4 304.048 1142.75 304.048H1111.64V358H1090.91V221.296H1142.75ZM1111.64 239.92V285.424H1141.59C1148.89 285.424 1154.71 283.504 1159.07 279.664C1163.55 275.696 1165.79 270.064 1165.79 262.768C1165.79 255.472 1163.55 249.84 1159.07 245.872C1154.71 241.904 1148.89 239.92 1141.59 239.92H1111.64Z" fill="#016143"/>
<path d="M1076.02 239.92H1009.39V279.856H1066.23V298.48H1009.39V339.376H1076.02V358H988.658V221.296H1076.02V239.92Z" fill="#016143"/>
<path d="M927.97 221.296C940.77 221.296 950.818 224.624 958.114 231.28C965.538 237.936 969.25 247.088 969.25 258.736C969.25 262.448 968.674 265.904 967.522 269.104C966.498 272.176 965.09 274.992 963.298 277.552C961.634 279.984 959.714 282.096 957.538 283.888C955.362 285.552 953.122 286.832 950.818 287.728C953.506 288.752 956.066 290.224 958.498 292.144C960.93 293.936 963.106 296.112 965.026 298.672C966.946 301.232 968.482 304.24 969.634 307.696C970.786 311.152 971.362 315.056 971.362 319.408C971.362 325.68 970.338 331.248 968.29 336.112C966.242 340.848 963.362 344.88 959.65 348.208C956.066 351.408 951.714 353.84 946.594 355.504C941.602 357.168 936.098 358 930.082 358H874.786V221.296H927.97ZM895.522 297.712V339.376H928.162C935.458 339.376 941.026 337.456 944.866 333.616C948.706 329.648 950.626 324.592 950.626 318.448C950.626 312.304 948.706 307.312 944.866 303.472C941.026 299.632 935.458 297.712 928.162 297.712H895.522ZM895.522 239.92V279.088H926.242C932.898 279.088 938.274 277.424 942.37 274.096C946.466 270.768 948.514 265.904 948.514 259.504C948.514 253.104 946.466 248.24 942.37 244.912C938.274 241.584 932.898 239.92 926.242 239.92H895.522Z" fill="#016143"/>
<path d="M859.899 239.92H793.275V279.856H850.107V298.48H793.275V339.376H859.899V358H772.539V221.296H859.899V239.92Z" fill="#016143"/>
<path d="M750.317 358H729.581V239.92H689.453V283.12C689.453 297.456 688.557 309.424 686.765 319.024C685.101 328.624 682.541 336.304 679.085 342.064C675.629 347.824 671.341 351.92 666.221 354.352C661.101 356.784 655.085 358 648.173 358H639.533V339.376H643.181C647.021 339.376 650.541 338.608 653.741 337.072C656.941 335.536 659.693 332.656 661.997 328.432C664.301 324.08 666.093 318.064 667.373 310.384C668.653 302.704 669.293 292.656 669.293 280.24V221.296H750.317V358Z" fill="#016143"/>
<path d="M573.44 285.808L632.192 358H606.464L550.784 286.576L602.432 221.296H627.392L573.44 285.808ZM550.592 358H529.856V221.296H550.592V358Z" fill="#016143"/>
</svg>
