<svg width="1628" height="574" viewBox="0 0 1628 574" fill="none" xmlns="http://www.w3.org/2000/svg">
<path d="M110 195C110 148.056 148.056 110 195 110V110C241.944 110 280 148.056 280 195V280H195C148.056 280 110 241.944 110 195V195Z" fill="#016143"/>
<path d="M110 379C110 425.944 148.056 464 195 464V464C241.944 464 280 425.944 280 379V294H195C148.056 294 110 332.056 110 379V379Z" fill="#016143"/>
<path d="M379 464C425.944 464 464 425.944 464 379V379C464 332.056 425.944 294 379 294L294 294L294 379C294 425.944 332.056 464 379 464V464Z" fill="#016143"/>
<path d="M464 110L384 110C334.294 110 294 150.294 294 200L294 280L374 280C423.706 280 464 239.706 464 190L464 110Z" fill="#016143"/>
<circle cx="379.5" cy="195.5" r="64.5" fill="white"/>
<path d="M1467.77 221.296C1476.35 221.296 1483.71 222.704 1489.85 225.52C1496.13 228.208 1501.69 232.56 1506.56 238.576C1508.99 241.648 1510.91 245.04 1512.32 248.752C1513.73 252.336 1514.75 256.24 1515.39 260.464C1516.16 264.688 1516.61 269.232 1516.73 274.096C1516.86 278.96 1516.93 284.144 1516.93 289.648C1516.93 295.152 1516.86 300.336 1516.73 305.2C1516.61 310.064 1516.16 314.608 1515.39 318.832C1514.75 323.056 1513.73 327.024 1512.32 330.736C1510.91 334.32 1508.99 337.648 1506.56 340.72C1501.69 346.736 1496.13 351.152 1489.85 353.968C1483.71 356.656 1476.35 358 1467.77 358H1419.77V221.296H1467.77ZM1440.51 239.92V339.376H1465.47C1470.33 339.376 1474.69 338.672 1478.53 337.264C1482.49 335.856 1485.95 333.488 1488.89 330.16C1492.22 326.448 1494.27 321.328 1495.04 314.8C1495.81 308.272 1496.19 299.888 1496.19 289.648C1496.19 279.408 1495.81 271.024 1495.04 264.496C1494.27 257.968 1492.22 252.848 1488.89 249.136C1485.95 245.808 1482.49 243.44 1478.53 242.032C1474.69 240.624 1470.33 239.92 1465.47 239.92H1440.51Z" fill="#016143"/>
<path d="M1404.89 239.92H1338.26V279.856H1395.09V298.48H1338.26V339.376H1404.89V358H1317.53V221.296H1404.89V239.92Z" fill="#016143"/>
<path d="M1295.17 358H1274.43V266.608L1242.94 333.232H1227.58L1195.33 266.608V358H1174.59V221.296H1195.33L1235.26 306.352L1274.43 221.296H1295.17V358Z" fill="#016143"/>
<path d="M1115.21 221.296C1121.74 221.296 1127.56 222.32 1132.68 224.368C1137.93 226.288 1142.41 229.04 1146.12 232.624C1149.83 236.08 1152.65 240.304 1154.57 245.296C1156.62 250.16 1157.64 255.472 1157.64 261.232C1157.64 271.088 1155.02 279.088 1149.77 285.232C1144.52 291.248 1138.06 295.344 1130.38 297.52L1161.87 358H1137.67L1108.87 300.4H1082.95V358H1062.22V221.296H1115.21ZM1082.95 239.92V282.736H1113.67C1120.59 282.736 1126.15 280.88 1130.38 277.168C1134.73 273.456 1136.91 268.208 1136.91 261.424C1136.91 254.64 1134.73 249.392 1130.38 245.68C1126.15 241.84 1120.59 239.92 1113.67 239.92H1082.95Z" fill="#016143"/>
<path d="M1047.33 239.92H980.707V279.856H1037.54V298.48H980.707V339.376H1047.33V358H959.971V221.296H1047.33V239.92Z" fill="#016143"/>
<path d="M845.332 221.296H866.836L898.324 320.944L929.812 221.296H951.316L906.196 358H890.26L845.332 221.296Z" fill="#016143"/>
<path d="M838.149 239.92H771.525V279.856H828.357V298.48H771.525V339.376H838.149V358H750.789V221.296H838.149V239.92Z" fill="#016143"/>
<path d="M674.715 339.376H740.571V358H653.979V221.296H674.715V339.376Z" fill="#016143"/>
<path d="M591.016 220.144C603.688 220.144 614.376 223.792 623.08 231.088C631.784 238.256 637.352 248.624 639.784 262.192H618.664C617.128 255.152 614.056 249.52 609.448 245.296C604.84 240.944 598.696 238.768 591.016 238.768C582.696 238.768 575.976 241.52 570.856 247.024C569.064 248.816 567.656 250.8 566.632 252.976C565.608 255.152 564.776 257.84 564.136 261.04C563.496 264.112 563.048 267.952 562.792 272.56C562.664 277.168 562.6 282.864 562.6 289.648C562.6 296.432 562.664 302.128 562.792 306.736C563.048 311.344 563.496 315.248 564.136 318.448C564.776 321.52 565.608 324.144 566.632 326.32C567.656 328.496 569.064 330.48 570.856 332.272C575.976 337.776 582.696 340.528 591.016 340.528C598.696 340.528 604.84 338.416 609.448 334.192C614.056 329.84 617.128 324.144 618.664 317.104H639.784C637.352 330.672 631.72 341.104 622.888 348.4C614.184 355.568 603.56 359.152 591.016 359.152C583.464 359.152 576.808 358 571.048 355.696C565.288 353.264 560.168 349.808 555.688 345.328C552.36 342 549.736 338.544 547.816 334.96C546.024 331.376 544.68 327.472 543.784 323.248C542.888 318.896 542.312 314.032 542.056 308.656C541.928 303.152 541.864 296.816 541.864 289.648C541.864 282.48 541.928 276.208 542.056 270.832C542.312 265.328 542.888 260.464 543.784 256.24C544.68 251.888 546.024 247.92 547.816 244.336C549.736 240.752 552.36 237.296 555.688 233.968C560.168 229.488 565.288 226.096 571.048 223.792C576.808 221.36 583.464 220.144 591.016 220.144Z" fill="#016143"/>
</svg>
